<svg width="14" height="16" viewBox="0 0 14 16" fill="none" xmlns="http://www.w3.org/2000/svg">
<path fill-rule="evenodd" clip-rule="evenodd" d="M6.66475 0.57918C6.8759 0.473607 7.12443 0.473607 7.33557 0.57918L13.3211 3.57192C13.3463 3.58391 13.3709 3.59728 13.3945 3.61192C13.4428 3.64173 13.488 3.67718 13.529 3.7179C13.5711 3.75977 13.6077 3.80613 13.6383 3.8558C13.6802 3.92341 13.7116 3.99817 13.7303 4.07782C13.7438 4.13492 13.7504 4.19268 13.7503 4.25C13.7503 4.25541 13.7503 4.26082 13.7502 4.26624V11.75C13.7502 12.0341 13.5897 12.2938 13.3356 12.4208L7.3491 15.4141C7.33436 15.4216 7.31345 15.4317 7.29827 15.4382C7.25696 15.4562 7.21481 15.4701 7.1723 15.4802C7.11521 15.4937 7.05747 15.5002 7.00016 15.5002C6.94285 15.5002 6.8851 15.4937 6.828 15.4801C6.76573 15.4655 6.70645 15.4431 6.65124 15.4141L0.664754 12.4208C0.410666 12.2938 0.250164 12.0341 0.250164 11.75V4.26625C0.250051 4.26083 0.249996 4.25541 0.25 4.25C0.249956 4.19262 0.256519 4.1348 0.270063 4.07765C0.290858 3.98922 0.327303 3.90682 0.376315 3.83355C0.404002 3.79196 0.435345 3.75388 0.46969 3.71953C0.50405 3.68518 0.542137 3.65383 0.583732 3.62614C0.61409 3.60583 0.646014 3.58769 0.679284 3.57191L6.66475 0.57918ZM1.75016 5.46353V11.2865L6.25016 13.5365V7.71353L1.75016 5.46353ZM7.75016 7.71353V13.5365L12.2502 11.2865V5.46353L7.75016 7.71353ZM11.3231 4.25L7.00016 6.41147L2.67722 4.25L7.00016 2.08853L11.3231 4.25ZM0.671528 3.57579C0.597519 3.6118 0.529111 3.66009 0.46969 3.71953C0.402432 3.78677 0.349449 3.86551 0.312381 3.95086" fill="#7434DB"/>
</svg>
