<svg width="16" height="16" viewBox="0 0 16 16" fill="none" xmlns="http://www.w3.org/2000/svg">
<path d="M15.75 1.53782V4.10833C15.75 4.81638 15.1731 5.39615 14.457 5.39615H6.70964C5.99877 5.39615 5.41668 5.97077 5.41668 6.68395V14.4622C5.41668 15.1702 4.83974 15.75 4.12372 15.75H1.54296C0.832092 15.75 0.25 15.1754 0.25 14.4622V6.68395C0.25 5.9759 0.82694 5.39615 1.54296 5.39615H4.12372C4.83459 5.39615 5.41668 4.82151 5.41668 4.10833V1.53782C5.41668 0.82978 5.99362 0.25 6.70964 0.25H14.457C15.1679 0.25 15.75 0.824649 15.75 1.53782Z" fill="black"/>
</svg>
