<svg width="18" height="13" viewBox="0 0 18 13" fill="none" xmlns="http://www.w3.org/2000/svg">
<path fill-rule="evenodd" clip-rule="evenodd" d="M17.7178 0.525801C17.7178 0.511552 17.7063 0.5 17.692 0.5L10.0049 0.5C9.1549 0.5 8.46582 1.18908 8.46582 2.03911L8.46582 11.2996C8.46582 12.1496 9.1549 12.8387 10.0049 12.8387L17.692 12.8387C17.7063 12.8387 17.7178 12.8272 17.7178 12.8129C17.7178 12.8003 17.7087 12.7895 17.6962 12.7874C15.4246 12.3954 13.6697 9.80567 13.6697 6.66935C13.6697 3.53304 15.4246 0.943332 17.6962 0.551326C17.7087 0.54918 17.7178 0.538419 17.7178 0.525801Z" fill="#5F27FC"/>
<path fill-rule="evenodd" clip-rule="evenodd" d="M9.252 0.525864C9.252 0.51158 9.24042 0.5 9.22614 0.5L1.53911 0.5C0.689083 0.5 0 1.18908 0 2.03911L0 11.2996C0 12.1496 0.689081 12.8387 1.53911 12.8387L9.22614 12.8387C9.24042 12.8387 9.252 12.8271 9.252 12.8128C9.252 12.8002 9.24282 12.7894 9.23036 12.7873C6.95904 12.3948 5.20455 9.80534 5.20455 6.66935C5.20455 3.53336 6.95904 0.943874 9.23036 0.551449C9.24282 0.549296 9.252 0.538509 9.252 0.525864Z" fill="#5F27FC"/>
</svg>
