<svg width="14" height="12" viewBox="0 0 14 12" fill="none" xmlns="http://www.w3.org/2000/svg">
<path d="M5.8335 8.33333C5.641 8.33333 5.45432 8.23416 5.34932 8.07083L4.35765 6.58333H1.17267C0.851835 6.58333 0.589335 6.32083 0.589335 6C0.589335 5.67917 0.851835 5.41667 1.17267 5.41667H4.67267C4.86517 5.41667 5.05181 5.51584 5.15681 5.67917L6.14848 7.16667H7.85765L8.84932 5.67917C8.96015 5.51584 9.141 5.41667 9.3335 5.41667H12.8335C13.1543 5.41667 13.4168 5.67917 13.4168 6C13.4168 6.32083 13.1543 6.58333 12.8335 6.58333H9.64848L8.65681 8.07083C8.54598 8.23416 8.36517 8.33333 8.17267 8.33333H5.8335Z" fill="#7D7F83"/>
<path d="M2.3335 11.25C1.86683 11.25 1.42933 11.0692 1.09683 10.7367C0.770166 10.41 0.583496 9.96083 0.583496 9.5V6C0.583496 5.90667 0.606821 5.81916 0.647654 5.73749L2.66016 1.71832C2.80599 1.42665 3.02765 1.18167 3.30765 1.01251C3.58765 0.84334 3.90266 0.75 4.22933 0.75H9.78267C10.1093 0.75 10.4301 0.84334 10.7043 1.01251C10.9785 1.18167 11.206 1.42665 11.346 1.71832L13.3585 5.73749C13.3993 5.81916 13.4227 5.90667 13.4227 6V9.5C13.4227 9.96083 13.236 10.41 12.9093 10.7367C12.5768 11.0692 12.1393 11.25 11.6727 11.25H2.3335ZM1.75016 6.13999V9.5C1.75016 9.65167 1.81432 9.80335 1.91932 9.91418C2.03015 10.025 2.176 10.0833 2.3335 10.0833H11.6668C11.8185 10.0833 11.9701 10.0192 12.081 9.91418C12.1918 9.80335 12.2502 9.6575 12.2502 9.5V6.13999L10.3018 2.24333C10.2551 2.14417 10.1793 2.06251 10.086 2.00418C9.99265 1.94585 9.88767 1.91667 9.77683 1.91667H4.22349C4.11266 1.91667 4.00764 1.94585 3.91431 2.00418C3.82097 2.06251 3.74514 2.14417 3.69848 2.24333L1.75016 6.13999Z" fill="#7D7F83"/>
</svg>
