<svg width="15" height="15" viewBox="0 0 15 15" fill="none" xmlns="http://www.w3.org/2000/svg">
<path d="M7.5 0.578125C3.6325 0.578125 0.5 3.71063 0.5 7.57813C0.5 10.6756 2.50375 13.2919 5.28625 14.2194C5.63625 14.2806 5.7675 14.0706 5.7675 13.8869C5.7675 13.7206 5.75875 13.1694 5.75875 12.5831C4 12.9069 3.545 12.1544 3.405 11.7606C3.32625 11.5594 2.985 10.9381 2.6875 10.7719C2.4425 10.6406 2.0925 10.3169 2.67875 10.3081C3.23 10.2994 3.62375 10.8156 3.755 11.0256C4.385 12.0844 5.39125 11.7869 5.79375 11.6031C5.855 11.1481 6.03875 10.8419 6.24 10.6669C4.6825 10.4919 3.055 9.88813 3.055 7.21063C3.055 6.44938 3.32625 5.81938 3.7725 5.32938C3.7025 5.15438 3.4575 4.43688 3.8425 3.47438C3.8425 3.47438 4.42875 3.29063 5.7675 4.19188C6.3275 4.03438 6.9225 3.95563 7.5175 3.95563C8.1125 3.95563 8.7075 4.03438 9.2675 4.19188C10.6063 3.28188 11.1925 3.47438 11.1925 3.47438C11.5775 4.43688 11.3325 5.15438 11.2625 5.32938C11.7088 5.81938 11.98 6.44063 11.98 7.21063C11.98 9.89688 10.3437 10.4919 8.78625 10.6669C9.04 10.8856 9.25875 11.3056 9.25875 11.9619C9.25875 12.8981 9.25 13.6506 9.25 13.8869C9.25 14.0706 9.38125 14.2894 9.73125 14.2194C11.1209 13.7504 12.3285 12.8573 13.184 11.6659C14.0395 10.4745 14.4998 9.04483 14.5 7.57813C14.5 3.71063 11.3675 0.578125 7.5 0.578125Z" fill="#1D2025"/>
</svg>
