<svg width="15" height="15" viewBox="0 0 15 15" fill="none" xmlns="http://www.w3.org/2000/svg">
<path d="M14.1019 6.31684C14.1835 6.78668 14.2242 7.26271 14.2235 7.73959C14.2235 9.86934 13.4623 11.6701 12.1375 12.889H12.1393C10.9808 13.9591 9.38825 14.5786 7.5 14.5786C5.64348 14.5786 3.86301 13.8411 2.55025 12.5283C1.2375 11.2156 0.5 9.4351 0.5 7.57859C0.5 5.72207 1.2375 3.94159 2.55025 2.62884C3.86301 1.31608 5.64348 0.578587 7.5 0.578587C9.2377 0.558236 10.9159 1.21107 12.183 2.40034L10.1845 4.39884C9.46208 3.71019 8.49794 3.33308 7.5 3.34884C5.67388 3.34884 4.1225 4.58084 3.5695 6.23984C3.27629 7.10915 3.27629 8.05064 3.5695 8.91996H3.57213C4.12775 10.5763 5.6765 11.8083 7.50263 11.8083C8.44588 11.8083 9.25613 11.5668 9.88438 11.1398H9.88175C10.2465 10.8982 10.5586 10.5851 10.7991 10.2195C11.0395 9.85391 11.2034 9.44339 11.2809 9.01271H7.5V6.31771L14.1019 6.31684Z" fill="#1D2025"/>
</svg>
