<svg width="12" height="13" viewBox="0 0 12 13" fill="none" xmlns="http://www.w3.org/2000/svg">
<path d="M5 4.25C5 4.66421 4.66421 5 4.25 5C3.83579 5 3.5 4.66421 3.5 4.25C3.5 3.83579 3.83579 3.5 4.25 3.5C4.66421 3.5 5 3.83579 5 4.25Z" fill="#444141"/>
<path d="M7 4.25C7 4.66421 6.66421 5 6.25 5C5.83579 5 5.5 4.66421 5.5 4.25C5.5 3.83579 5.83579 3.5 6.25 3.5C6.66421 3.5 7 3.83579 7 4.25Z" fill="#444141"/>
<path d="M9 4.25C9 4.66421 8.66421 5 8.25 5C7.83579 5 7.5 4.66421 7.5 4.25C7.5 3.83579 7.83579 3.5 8.25 3.5C8.66421 3.5 9 3.83579 9 4.25Z" fill="#444141"/>
<path d="M5 6.25C5 6.66421 4.66421 7 4.25 7C3.83579 7 3.5 6.66421 3.5 6.25C3.5 5.83579 3.83579 5.5 4.25 5.5C4.66421 5.5 5 5.83579 5 6.25Z" fill="#444141"/>
<path d="M5 8.25C5 8.66421 4.66421 9 4.25 9C3.83579 9 3.5 8.66421 3.5 8.25C3.5 7.83579 3.83579 7.5 4.25 7.5C4.66421 7.5 5 7.83579 5 8.25Z" fill="#444141"/>
<path d="M7 6.25C7 6.66421 6.66421 7 6.25 7C5.83579 7 5.5 6.66421 5.5 6.25C5.5 5.83579 5.83579 5.5 6.25 5.5C6.66421 5.5 7 5.83579 7 6.25Z" fill="#444141"/>
<path d="M7 8.25C7 8.66421 6.66421 9 6.25 9C5.83579 9 5.5 8.66421 5.5 8.25C5.5 7.83579 5.83579 7.5 6.25 7.5C6.66421 7.5 7 7.83579 7 8.25Z" fill="#444141"/>
<path d="M9 6.25C9 6.66421 8.66421 7 8.25 7C7.83579 7 7.5 6.66421 7.5 6.25C7.5 5.83579 7.83579 5.5 8.25 5.5C8.66421 5.5 9 5.83579 9 6.25Z" fill="#444141"/>
<path d="M9 8.25C9 8.66421 8.66421 9 8.25 9C7.83579 9 7.5 8.66421 7.5 8.25C7.5 7.83579 7.83579 7.5 8.25 7.5C8.66421 7.5 9 7.83579 9 8.25Z" fill="#444141"/>
</svg>
