<svg width="12" height="14" viewBox="0 0 12 14" fill="none" xmlns="http://www.w3.org/2000/svg">
<path d="M1.9165 13.4163C1.45567 13.4163 1.00651 13.2297 0.67984 12.903C0.353173 12.5763 0.166504 12.1272 0.166504 11.6663V5.24966C0.166504 5.06883 0.248161 4.89967 0.393995 4.78884L5.64399 0.705508C5.85399 0.542174 6.1515 0.542174 6.3615 0.705508L11.6115 4.78884C11.7515 4.89967 11.839 5.06883 11.839 5.24966V11.6663C11.839 12.1272 11.6523 12.5763 11.3257 12.903C10.999 13.2297 10.5498 13.4163 10.089 13.4163H1.9165ZM1.33317 5.53549V11.6663C1.33317 11.818 1.39732 11.9697 1.50232 12.0805C1.61316 12.1913 1.759 12.2497 1.9165 12.2497H10.0832C10.2348 12.2497 10.3865 12.1855 10.4973 12.0805C10.6082 11.9697 10.6665 11.8238 10.6665 11.6663V5.53549L5.99984 1.90717L1.33317 5.53549Z" fill="#7D7F83"/>
<path d="M7.74984 13.4163C7.429 13.4163 7.1665 13.1538 7.1665 12.833V7.58301H4.83317V12.833C4.83317 13.1538 4.57067 13.4163 4.24984 13.4163C3.929 13.4163 3.6665 13.1538 3.6665 12.833V6.99967C3.6665 6.67884 3.929 6.41634 4.24984 6.41634H7.74984C8.07067 6.41634 8.33317 6.67884 8.33317 6.99967V12.833C8.33317 13.1538 8.07067 13.4163 7.74984 13.4163Z" fill="#7D7F83"/>
</svg>
