<svg width="16" height="16" viewBox="0 0 16 16" fill="none" xmlns="http://www.w3.org/2000/svg">
<path d="M7.99945 0.0263672C3.59478 0.0263672 0.0239258 3.59713 0.0239258 8.0018C0.0239258 12.4067 3.59478 15.9771 7.99945 15.9771C12.4046 15.9771 15.9751 12.4067 15.9751 8.0018C15.9751 3.59741 12.4046 0.0267481 7.99935 0.0267481L7.99945 0.0263672ZM11.657 11.5292C11.5141 11.7635 11.2074 11.8378 10.9732 11.694C9.10059 10.5502 6.74326 10.2911 3.96707 10.9254C3.69954 10.9864 3.43288 10.8187 3.37193 10.5511C3.31069 10.2835 3.47764 10.0168 3.74583 9.95589C6.78393 9.2618 9.38993 9.56065 11.4922 10.8454C11.7265 10.9892 11.8008 11.2949 11.657 11.5292ZM12.6332 9.3576C12.4532 9.65018 12.0703 9.74256 11.7779 9.56256C9.63412 8.24484 6.36621 7.86322 3.8305 8.63294C3.50164 8.73227 3.15431 8.54694 3.0545 8.21865C2.95545 7.8898 3.14088 7.54313 3.46916 7.44313C6.36564 6.56427 9.9665 6.98999 12.4284 8.50284C12.7208 8.68284 12.8132 9.06561 12.6332 9.3576ZM12.717 7.09627C10.1465 5.56951 5.90555 5.42913 3.45135 6.17399C3.05726 6.29351 2.6405 6.07103 2.52107 5.67694C2.40164 5.28265 2.62393 4.86618 3.01831 4.74637C5.83555 3.89113 10.5189 4.05637 13.4783 5.81322C13.8335 6.02361 13.9497 6.48142 13.7393 6.83542C13.5297 7.18989 13.0707 7.30675 12.7174 7.09627H12.717Z" fill="#1ED760"/>
</svg>
