<svg width="16" height="16" viewBox="0 0 16 16" fill="none" xmlns="http://www.w3.org/2000/svg">
<path d="M16 3.03827C15.4113 3.29934 14.7787 3.47583 14.1146 3.55516C14.7924 3.14891 15.3129 2.5056 15.558 1.73906C14.9238 2.11525 14.2212 2.38843 13.4735 2.53566C12.8747 1.89766 12.0216 1.49902 11.0775 1.49902C9.26453 1.49902 7.79479 2.96877 7.79479 4.78154C7.79479 5.03885 7.82383 5.28934 7.87978 5.52962C5.15164 5.39273 2.73288 4.08588 1.11385 2.09987C0.83129 2.5847 0.669433 3.14857 0.669433 3.75016C0.669433 4.88899 1.24896 5.89374 2.12974 6.48241C1.59165 6.46538 1.0855 6.3177 0.64291 6.07182C0.64268 6.08554 0.64263 6.09926 0.64263 6.11309C0.64263 7.70357 1.77414 9.03032 3.27583 9.33186C3.00036 9.40684 2.71036 9.44696 2.411 9.44696C2.19947 9.44696 1.99383 9.42639 1.7934 9.38809C2.21113 10.6922 3.4234 11.6413 4.85983 11.6678C3.73637 12.5482 2.32098 13.073 0.783053 13.073C0.51809 13.073 0.256787 13.0574 0 13.0271C1.45271 13.9585 3.17816 14.5019 5.03191 14.5019C11.0698 14.5019 14.3715 9.5 14.3715 5.16218C14.3715 5.01987 14.3683 4.8783 14.3621 4.73753C15.0034 4.27471 15.5599 3.69655 16 3.03827Z" fill="#1D9BF0"/>
</svg>
