<svg width="16" height="12" viewBox="0 0 16 12" fill="none" xmlns="http://www.w3.org/2000/svg">
<path d="M15.8402 2.80074C15.8402 2.80074 15.6839 1.69816 15.2042 1.21262C14.5957 0.575353 13.9138 0.572197 13.601 0.534893C11.362 0.373047 8.00348 0.373047 8.00348 0.373047H7.99652C7.99652 0.373047 4.63803 0.373047 2.39898 0.534893C2.08621 0.572197 1.40448 0.575353 0.795833 1.21262C0.316117 1.69816 0.16001 2.80074 0.16001 2.80074C0.16001 2.80074 0 4.09552 0 5.39029V6.60415C0 7.89891 0.160013 9.19369 0.160013 9.19369C0.160013 9.19369 0.31612 10.2963 0.795837 10.7818C1.40448 11.4191 2.20397 11.3989 2.56006 11.4657C3.84009 11.5885 8.00001 11.6264 8.00001 11.6264C8.00001 11.6264 11.362 11.6214 13.601 11.4595C13.9138 11.4222 14.5957 11.4191 15.2042 10.7818C15.6839 10.2963 15.8402 9.19369 15.8402 9.19369C15.8402 9.19369 16 7.89891 16 6.60415V5.39029C16 4.09552 15.8402 2.80074 15.8402 2.80074Z" fill="#DC2217"/>
<path d="M6.34839 8.07468L6.34766 3.5791L10.6709 5.83472L6.34839 8.07468Z" fill="white"/>
</svg>
