<svg width="30" height="31" viewBox="0 0 30 31" fill="none" xmlns="http://www.w3.org/2000/svg">
<rect y="0.949219" width="29.2624" height="29.2624" rx="4.0362" fill="#141526"/>
<path d="M24.2172 8.05099V11.1468C24.2172 11.9995 23.5223 12.6978 22.66 12.6978H13.3294C12.4733 12.6978 11.7722 13.3898 11.7722 14.2487V23.6164C11.7722 24.4692 11.0774 25.1674 10.2151 25.1674H7.10692C6.25079 25.1674 5.54974 24.4753 5.54974 23.6164V14.2487C5.54974 13.396 6.24458 12.6978 7.10692 12.6978H10.2151C11.0712 12.6978 11.7722 12.0057 11.7722 11.1468V8.05099C11.7722 7.19826 12.4671 6.5 13.3294 6.5H22.66C23.5161 6.5 24.2172 7.19208 24.2172 8.05099Z" fill="white"/>
<path d="M24.4694 11.1468V8.05099C24.4694 7.05116 23.6538 6.24774 22.66 6.24774H13.3294C12.328 6.24774 11.52 7.05864 11.52 8.05099V11.1468C11.52 11.8648 10.9335 12.4455 10.2151 12.4455H7.10692C6.10556 12.4455 5.29748 13.2564 5.29748 14.2487V23.6164C5.29748 24.6163 6.11307 25.4197 7.10692 25.4197H10.2151C11.2164 25.4197 12.0245 24.6088 12.0245 23.6164V14.2487C12.0245 13.5307 12.611 12.95 13.3294 12.95H22.66C23.6614 12.95 24.4694 12.1391 24.4694 11.1468Z" stroke="white" stroke-opacity="0.2" stroke-width="0.504525"/>
</svg>
