<svg width="112" height="35" viewBox="0 0 112 35" fill="none" xmlns="http://www.w3.org/2000/svg">
<path d="M37.4271 28V7.73308H46.1485C50.5231 7.73308 53.361 9.47737 53.361 13.5474C53.361 16.4683 51.949 17.7973 50.4677 18.3095V18.6279C52.8073 18.974 53.098 20.4276 53.098 22.0611V28H49.8447V22.1857C49.8447 21.0921 49.1803 20.4276 48.0174 20.4276H40.6803V28H37.4271ZM40.6803 17.5481H45.0964C48.142 17.5481 50.1078 17.0221 50.1078 14.0319C50.1078 11.0555 48.1005 10.6125 45.0964 10.6125H40.6803V17.5481ZM60.8839 28.3322C57.5753 28.3322 55.2911 26.5187 55.2911 23.4178C55.2911 20.6076 57.16 18.891 60.787 18.891H65.4938V18.0742C65.4938 16.2607 64.3586 15.3332 62.1852 15.3332C60.2194 15.3332 59.1119 16.0392 58.8904 17.5066H55.7202C55.9556 14.8487 57.949 12.6891 62.2129 12.6891C66.6151 12.6891 68.6086 14.821 68.6086 18.005V24.4699C68.6086 25.1067 68.9546 25.4389 69.5776 25.4389H70.2144V28H68.6362C67.1273 28 66.1444 27.4463 65.7706 26.2557H65.5768C64.6078 27.5709 63.1127 28.3322 60.8839 28.3322ZM58.4336 23.404C58.4336 24.9683 59.7764 25.702 61.5622 25.702C64.0402 25.702 65.4938 24.3315 65.4938 21.8673V21.272H61.1192C59.2227 21.272 58.4336 22.1719 58.4336 23.404ZM72.0467 28V13.0352H74.9677L75.1477 14.3918H75.3692C76.2967 13.3259 77.8056 12.6891 79.7714 12.6891C83.2461 12.6891 85.0735 14.7102 85.0735 18.8079V28H81.9448V19.68C81.9448 16.939 80.7958 15.4993 78.6362 15.4993C76.4074 15.4993 75.1754 17.0082 75.1754 19.6939V28H72.0467ZM92.0342 28C89.9715 28 88.8502 26.8787 88.8502 24.816V15.4855H86.4137V13.0352H88.8502V9.25587H91.965V13.0352H94.969V15.4855H91.965V24.2069C91.965 24.816 92.311 25.1482 92.934 25.1482H94.969V28H92.0342ZM96.8818 28V13.0352H100.01V28H96.8818ZM96.8818 10.9586V7.73308H100.01V10.9586H96.8818ZM102.661 28V13.0352H105.624L105.804 14.6133H106.122C106.787 13.4366 107.645 13.0352 108.891 13.0352H111.12V15.9838H108.254C106.648 15.9838 105.79 16.856 105.79 18.4757V28H102.661Z" fill="#121212"/>
<rect y="2.94922" width="29.2624" height="29.2624" rx="4.0362" fill="#141526"/>
<path d="M24.2172 10.051V13.1468C24.2172 13.9995 23.5223 14.6978 22.66 14.6978H13.3294C12.4733 14.6978 11.7722 15.3898 11.7722 16.2487V25.6164C11.7722 26.4692 11.0774 27.1674 10.2151 27.1674H7.10692C6.25079 27.1674 5.54974 26.4753 5.54974 25.6164V16.2487C5.54974 15.396 6.24458 14.6978 7.10692 14.6978H10.2151C11.0712 14.6978 11.7722 14.0057 11.7722 13.1468V10.051C11.7722 9.19826 12.4671 8.5 13.3294 8.5H22.66C23.5161 8.5 24.2172 9.19208 24.2172 10.051Z" fill="white"/>
<path d="M24.4694 13.1468V10.051C24.4694 9.05116 23.6538 8.24774 22.66 8.24774H13.3294C12.328 8.24774 11.52 9.05864 11.52 10.051V13.1468C11.52 13.8648 10.9335 14.4455 10.2151 14.4455H7.10692C6.10556 14.4455 5.29748 15.2564 5.29748 16.2487V25.6164C5.29748 26.6163 6.11307 27.4197 7.10692 27.4197H10.2151C11.2164 27.4197 12.0245 26.6088 12.0245 25.6164V16.2487C12.0245 15.5307 12.611 14.95 13.3294 14.95H22.66C23.6614 14.95 24.4694 14.1391 24.4694 13.1468Z" stroke="white" stroke-opacity="0.2" stroke-width="0.504525"/>
</svg>
